<mxfile host="Electron" agent="Mozilla/5.0 (X11; Linux x86_64) AppleWebKit/537.36 (KHTML, like Gecko) draw.io/24.7.17 Chrome/128.0.6613.36 Electron/32.0.1 Safari/537.36" version="24.7.17">
  <diagram name="Page-1" id="-7-vLeRaQvUi-DyRjATi">
    <mxGraphModel dx="819" dy="477" grid="1" gridSize="4" guides="1" tooltips="1" connect="1" arrows="1" fold="1" page="1" pageScale="1" pageWidth="850" pageHeight="1100" math="0" shadow="0">
      <root>
        <mxCell id="0" />
        <mxCell id="1" parent="0" />
        <mxCell id="jtM0x4LrWnEkOrYZ_eJX-8" value="" style="endArrow=none;dashed=1;html=1;rounded=0;entryX=0.536;entryY=1.002;entryDx=0;entryDy=0;entryPerimeter=0;" parent="1" edge="1">
          <mxGeometry width="50" height="50" relative="1" as="geometry">
            <mxPoint x="704" y="1084" as="sourcePoint" />
            <mxPoint x="704.3400000000001" y="152.00000000000003" as="targetPoint" />
          </mxGeometry>
        </mxCell>
        <mxCell id="DCnHzgPeeYYXoKH0LnII-5" value="" style="endArrow=none;dashed=1;html=1;rounded=0;entryX=0.5;entryY=1;entryDx=0;entryDy=0;" parent="1" source="DCnHzgPeeYYXoKH0LnII-15" target="QcKT72nkIw5ETrxxPbvO-2" edge="1">
          <mxGeometry width="50" height="50" relative="1" as="geometry">
            <mxPoint x="300" y="1080" as="sourcePoint" />
            <mxPoint x="300.1" y="130" as="targetPoint" />
          </mxGeometry>
        </mxCell>
        <mxCell id="DCnHzgPeeYYXoKH0LnII-6" value="" style="endArrow=none;dashed=1;html=1;rounded=0;entryX=0.5;entryY=1;entryDx=0;entryDy=0;" parent="1" target="DCnHzgPeeYYXoKH0LnII-3" edge="1">
          <mxGeometry width="50" height="50" relative="1" as="geometry">
            <mxPoint x="500" y="1084" as="sourcePoint" />
            <mxPoint x="499.71" y="130" as="targetPoint" />
          </mxGeometry>
        </mxCell>
        <mxCell id="QcKT72nkIw5ETrxxPbvO-1" value="&lt;b&gt;Браузер&lt;/b&gt;" style="html=1;whiteSpace=wrap;fillColor=#dae8fc;strokeColor=#6c8ebf;" parent="1" vertex="1">
          <mxGeometry x="40" y="40" width="120" height="80" as="geometry" />
        </mxCell>
        <mxCell id="QcKT72nkIw5ETrxxPbvO-2" value="&lt;b&gt;API сервис&lt;/b&gt;" style="html=1;whiteSpace=wrap;fillColor=#dae8fc;strokeColor=#6c8ebf;" parent="1" vertex="1">
          <mxGeometry x="240" y="40" width="120" height="80" as="geometry" />
        </mxCell>
        <mxCell id="QcKT72nkIw5ETrxxPbvO-3" value="&lt;b&gt;Backend worker&lt;/b&gt;" style="html=1;whiteSpace=wrap;fillColor=#dae8fc;strokeColor=#6c8ebf;" parent="1" vertex="1">
          <mxGeometry x="640" y="40" width="120" height="80" as="geometry" />
        </mxCell>
        <mxCell id="DCnHzgPeeYYXoKH0LnII-3" value="&lt;b&gt;RabbitMQ&lt;/b&gt;" style="html=1;whiteSpace=wrap;fillColor=#dae8fc;strokeColor=#6c8ebf;" parent="1" vertex="1">
          <mxGeometry x="440" y="40" width="120" height="80" as="geometry" />
        </mxCell>
        <mxCell id="DCnHzgPeeYYXoKH0LnII-13" value="" style="endArrow=none;dashed=1;html=1;rounded=0;entryX=0.5;entryY=1;entryDx=0;entryDy=0;" parent="1" target="QcKT72nkIw5ETrxxPbvO-1" edge="1">
          <mxGeometry width="50" height="50" relative="1" as="geometry">
            <mxPoint x="100" y="1088" as="sourcePoint" />
            <mxPoint x="100" y="590" as="targetPoint" />
          </mxGeometry>
        </mxCell>
        <mxCell id="DCnHzgPeeYYXoKH0LnII-8" value="" style="rounded=0;whiteSpace=wrap;html=1;rotation=90;labelBackgroundColor=none;glass=0;fillColor=#f8cecc;strokeColor=#b85450;" parent="1" vertex="1">
          <mxGeometry x="-361.25" y="578.75" width="922.5" height="35" as="geometry" />
        </mxCell>
        <mxCell id="DCnHzgPeeYYXoKH0LnII-16" value="" style="endArrow=none;dashed=1;html=1;rounded=0;" parent="1" target="DCnHzgPeeYYXoKH0LnII-15" edge="1">
          <mxGeometry width="50" height="50" relative="1" as="geometry">
            <mxPoint x="300" y="1088" as="sourcePoint" />
            <mxPoint x="300" y="120" as="targetPoint" />
          </mxGeometry>
        </mxCell>
        <mxCell id="DCnHzgPeeYYXoKH0LnII-15" value="" style="rounded=0;whiteSpace=wrap;html=1;rotation=90;labelBackgroundColor=none;glass=0;fillColor=#f8cecc;strokeColor=#b85450;" parent="1" vertex="1">
          <mxGeometry x="-161.25" y="578.75" width="922.5" height="35" as="geometry" />
        </mxCell>
        <mxCell id="DCnHzgPeeYYXoKH0LnII-17" value="&lt;font style=&quot;font-size: 8px;&quot;&gt;Авторизация&lt;/font&gt;" style="html=1;verticalAlign=bottom;endArrow=block;curved=0;rounded=0;exitX=0.01;exitY=0;exitDx=0;exitDy=0;exitPerimeter=0;jumpSize=6;movable=1;resizable=1;rotatable=1;deletable=1;editable=1;locked=0;connectable=1;shadow=0;strokeWidth=1;entryX=0.01;entryY=0.994;entryDx=0;entryDy=0;entryPerimeter=0;targetPerimeterSpacing=0;spacingTop=0;spacing=-5;sourcePerimeterSpacing=0;endSize=6;startSize=6;" parent="1" source="DCnHzgPeeYYXoKH0LnII-8" target="DCnHzgPeeYYXoKH0LnII-15" edge="1">
          <mxGeometry x="0.0002" width="80" relative="1" as="geometry">
            <mxPoint x="269.82500000000005" y="151.28750000000002" as="sourcePoint" />
            <mxPoint x="283" y="150" as="targetPoint" />
            <mxPoint as="offset" />
          </mxGeometry>
        </mxCell>
        <mxCell id="DCnHzgPeeYYXoKH0LnII-22" value="" style="rounded=0;whiteSpace=wrap;html=1;rotation=90;labelBackgroundColor=none;glass=0;fillColor=#f8cecc;strokeColor=#b85450;" parent="1" vertex="1">
          <mxGeometry x="891.18" y="152" width="17.55" height="34.53" as="geometry" />
        </mxCell>
        <mxCell id="DCnHzgPeeYYXoKH0LnII-23" value="Запрос данных о пользователе в БД" style="html=1;verticalAlign=bottom;endArrow=block;curved=0;rounded=0;exitX=0.027;exitY=0.002;exitDx=0;exitDy=0;exitPerimeter=0;jumpSize=6;movable=1;resizable=1;rotatable=1;deletable=1;editable=1;locked=0;connectable=1;shadow=0;strokeWidth=1;targetPerimeterSpacing=0;spacingTop=0;spacing=-5;sourcePerimeterSpacing=0;endSize=6;startSize=6;fontSize=8;entryX=0.002;entryY=0.974;entryDx=0;entryDy=0;entryPerimeter=0;" parent="1" source="DCnHzgPeeYYXoKH0LnII-15" target="DCnHzgPeeYYXoKH0LnII-22" edge="1">
          <mxGeometry x="0.0002" width="80" relative="1" as="geometry">
            <mxPoint x="318.2349999999999" y="160.00500000000005" as="sourcePoint" />
            <mxPoint x="880" y="160" as="targetPoint" />
            <mxPoint as="offset" />
          </mxGeometry>
        </mxCell>
        <mxCell id="DCnHzgPeeYYXoKH0LnII-25" value="&lt;font style=&quot;font-size: 8px;&quot;&gt;Данные о пользователе&lt;/font&gt;" style="html=1;verticalAlign=bottom;endArrow=open;dashed=1;endSize=8;rounded=0;spacing=-5;fontSize=10;entryX=0.044;entryY=-0.009;entryDx=0;entryDy=0;entryPerimeter=0;exitX=0.874;exitY=0.991;exitDx=0;exitDy=0;exitPerimeter=0;" parent="1" source="DCnHzgPeeYYXoKH0LnII-22" target="DCnHzgPeeYYXoKH0LnII-15" edge="1">
          <mxGeometry x="0.0004" relative="1" as="geometry">
            <mxPoint x="876" y="176" as="sourcePoint" />
            <mxPoint x="318.095" y="175.68750000000006" as="targetPoint" />
            <mxPoint as="offset" />
          </mxGeometry>
        </mxCell>
        <mxCell id="cB62RRdeZVZAQ7C6WHtT-6" value="&lt;span style=&quot;font-size: 8px;&quot;&gt;&amp;nbsp;Ответ авторизации&lt;/span&gt;" style="html=1;verticalAlign=bottom;endArrow=open;dashed=1;endSize=8;rounded=0;exitX=0.062;exitY=0.995;exitDx=0;exitDy=0;exitPerimeter=0;spacing=-5;fontSize=10;entryX=0.062;entryY=-0.011;entryDx=0;entryDy=0;entryPerimeter=0;" parent="1" source="DCnHzgPeeYYXoKH0LnII-15" target="DCnHzgPeeYYXoKH0LnII-8" edge="1">
          <mxGeometry x="0.0005" relative="1" as="geometry">
            <mxPoint x="280.82500000000005" y="191.99749999999997" as="sourcePoint" />
            <mxPoint x="120" y="192" as="targetPoint" />
            <mxPoint as="offset" />
          </mxGeometry>
        </mxCell>
        <mxCell id="jtM0x4LrWnEkOrYZ_eJX-1" value="&lt;span style=&quot;font-size: 8px;&quot;&gt;Загрузка архива на сервер&lt;/span&gt;" style="html=1;verticalAlign=bottom;endArrow=block;curved=0;rounded=0;jumpSize=6;movable=1;resizable=1;rotatable=1;deletable=1;editable=1;locked=0;connectable=1;shadow=0;strokeWidth=1;targetPerimeterSpacing=0;spacingTop=0;spacing=-5;sourcePerimeterSpacing=0;endSize=6;startSize=6;exitX=0.079;exitY=-0.011;exitDx=0;exitDy=0;exitPerimeter=0;entryX=0.079;entryY=0.999;entryDx=0;entryDy=0;entryPerimeter=0;" parent="1" source="DCnHzgPeeYYXoKH0LnII-8" target="DCnHzgPeeYYXoKH0LnII-15" edge="1">
          <mxGeometry x="0.0002" width="80" relative="1" as="geometry">
            <mxPoint x="120" y="208" as="sourcePoint" />
            <mxPoint x="280" y="208" as="targetPoint" />
            <mxPoint as="offset" />
          </mxGeometry>
        </mxCell>
        <mxCell id="jtM0x4LrWnEkOrYZ_eJX-5" value="&lt;span style=&quot;font-size: 8px;&quot;&gt;Загрузка архива&lt;/span&gt;" style="html=1;verticalAlign=bottom;endArrow=block;curved=0;rounded=0;jumpSize=6;movable=1;resizable=1;rotatable=1;deletable=1;editable=1;locked=0;connectable=1;shadow=0;strokeWidth=1;targetPerimeterSpacing=0;spacingTop=0;spacing=-5;sourcePerimeterSpacing=0;endSize=6;startSize=6;entryX=0;entryY=1;entryDx=0;entryDy=0;exitX=0.096;exitY=-0.013;exitDx=0;exitDy=0;exitPerimeter=0;" parent="1" source="DCnHzgPeeYYXoKH0LnII-15" target="jtM0x4LrWnEkOrYZ_eJX-4" edge="1">
          <mxGeometry x="0.0002" width="80" relative="1" as="geometry">
            <mxPoint x="336" y="224" as="sourcePoint" />
            <mxPoint x="480" y="223.86" as="targetPoint" />
            <mxPoint as="offset" />
          </mxGeometry>
        </mxCell>
        <mxCell id="jtM0x4LrWnEkOrYZ_eJX-7" value="&lt;b&gt;СУБД&lt;/b&gt;" style="html=1;whiteSpace=wrap;fillColor=#dae8fc;strokeColor=#6c8ebf;" parent="1" vertex="1">
          <mxGeometry x="840" y="40" width="120" height="80" as="geometry" />
        </mxCell>
        <mxCell id="jtM0x4LrWnEkOrYZ_eJX-11" value="" style="endArrow=none;dashed=1;html=1;rounded=0;entryX=0.5;entryY=1;entryDx=0;entryDy=0;" parent="1" target="jtM0x4LrWnEkOrYZ_eJX-7" edge="1">
          <mxGeometry width="50" height="50" relative="1" as="geometry">
            <mxPoint x="900" y="1084" as="sourcePoint" />
            <mxPoint x="908" y="143.08045977011494" as="targetPoint" />
          </mxGeometry>
        </mxCell>
        <mxCell id="jtM0x4LrWnEkOrYZ_eJX-10" value="" style="rounded=0;whiteSpace=wrap;html=1;rotation=90;labelBackgroundColor=none;glass=0;fillColor=#f8cecc;strokeColor=#b85450;" parent="1" vertex="1">
          <mxGeometry x="1035.76" y="287.31" width="128.47" height="35" as="geometry" />
        </mxCell>
        <mxCell id="jtM0x4LrWnEkOrYZ_eJX-14" value="" style="rounded=0;whiteSpace=wrap;html=1;rotation=90;labelBackgroundColor=none;glass=0;fillColor=#f8cecc;strokeColor=#b85450;" parent="1" vertex="1">
          <mxGeometry x="849.74" y="304.54" width="100.55" height="35" as="geometry" />
        </mxCell>
        <mxCell id="jtM0x4LrWnEkOrYZ_eJX-4" value="" style="rounded=0;whiteSpace=wrap;html=1;rotation=90;labelBackgroundColor=none;glass=0;fillColor=#f8cecc;strokeColor=#b85450;" parent="1" vertex="1">
          <mxGeometry x="436.37" y="270.93" width="128.18" height="35" as="geometry" />
        </mxCell>
        <mxCell id="jtM0x4LrWnEkOrYZ_eJX-9" value="&lt;span style=&quot;font-size: 8px;&quot;&gt;Загрузка архива в MinIO&lt;/span&gt;" style="html=1;verticalAlign=bottom;endArrow=block;curved=0;rounded=0;jumpSize=6;movable=1;resizable=1;rotatable=1;deletable=1;editable=1;locked=0;connectable=1;shadow=0;strokeWidth=1;targetPerimeterSpacing=0;spacingTop=0;spacing=-5;sourcePerimeterSpacing=0;endSize=6;startSize=6;entryX=0.002;entryY=0.973;entryDx=0;entryDy=0;entryPerimeter=0;exitX=0.124;exitY=-0.011;exitDx=0;exitDy=0;exitPerimeter=0;" parent="1" source="jtM0x4LrWnEkOrYZ_eJX-4" target="jtM0x4LrWnEkOrYZ_eJX-10" edge="1">
          <mxGeometry x="0.0002" width="80" relative="1" as="geometry">
            <mxPoint x="540" y="256" as="sourcePoint" />
            <mxPoint x="880" y="255.86" as="targetPoint" />
            <mxPoint as="offset" />
          </mxGeometry>
        </mxCell>
        <mxCell id="jtM0x4LrWnEkOrYZ_eJX-19" value="&lt;span style=&quot;font-size: 8px;&quot;&gt;Состояние загрузки&lt;/span&gt;" style="html=1;verticalAlign=bottom;endArrow=open;dashed=1;endSize=8;rounded=0;spacing=-5;fontSize=10;exitX=0.218;exitY=1.017;exitDx=0;exitDy=0;exitPerimeter=0;entryX=0.218;entryY=-0.001;entryDx=0;entryDy=0;entryPerimeter=0;" parent="1" source="DCnHzgPeeYYXoKH0LnII-15" target="DCnHzgPeeYYXoKH0LnII-8" edge="1">
          <mxGeometry x="0.0005" relative="1" as="geometry">
            <mxPoint x="276" y="336" as="sourcePoint" />
            <mxPoint x="124" y="336" as="targetPoint" />
            <mxPoint as="offset" />
          </mxGeometry>
        </mxCell>
        <mxCell id="jtM0x4LrWnEkOrYZ_eJX-21" value="&lt;span style=&quot;font-size: 8px;&quot;&gt;Результат загрузки&lt;/span&gt;" style="html=1;verticalAlign=bottom;endArrow=open;dashed=1;endSize=8;rounded=0;spacing=-5;fontSize=10;exitX=0.252;exitY=1.017;exitDx=0;exitDy=0;exitPerimeter=0;entryX=0.252;entryY=0.004;entryDx=0;entryDy=0;entryPerimeter=0;" parent="1" source="DCnHzgPeeYYXoKH0LnII-15" target="DCnHzgPeeYYXoKH0LnII-8" edge="1">
          <mxGeometry x="0.0005" relative="1" as="geometry">
            <mxPoint x="272" y="368" as="sourcePoint" />
            <mxPoint x="128" y="368" as="targetPoint" />
            <mxPoint as="offset" />
          </mxGeometry>
        </mxCell>
        <mxCell id="jtM0x4LrWnEkOrYZ_eJX-22" value="&lt;span style=&quot;font-size: 8px;&quot;&gt;Выгрузка архива с сервера&lt;/span&gt;" style="html=1;verticalAlign=bottom;endArrow=block;curved=0;rounded=0;exitX=0.339;exitY=-0.005;exitDx=0;exitDy=0;exitPerimeter=0;jumpSize=6;movable=1;resizable=1;rotatable=1;deletable=1;editable=1;locked=0;connectable=1;shadow=0;strokeWidth=1;targetPerimeterSpacing=0;spacingTop=0;spacing=-5;sourcePerimeterSpacing=0;endSize=6;startSize=6;entryX=0.339;entryY=1.004;entryDx=0;entryDy=0;entryPerimeter=0;" parent="1" edge="1">
          <mxGeometry x="0.0002" width="80" relative="1" as="geometry">
            <mxPoint x="117.67499999999995" y="383.99750000000006" as="sourcePoint" />
            <mxPoint x="282.3600000000001" y="383.99749999999995" as="targetPoint" />
            <mxPoint as="offset" />
          </mxGeometry>
        </mxCell>
        <mxCell id="jtM0x4LrWnEkOrYZ_eJX-23" value="" style="rounded=0;whiteSpace=wrap;html=1;rotation=90;labelBackgroundColor=none;glass=0;fillColor=#f8cecc;strokeColor=#b85450;" parent="1" vertex="1">
          <mxGeometry x="433.46" y="446.45" width="133.09" height="35" as="geometry" />
        </mxCell>
        <mxCell id="jtM0x4LrWnEkOrYZ_eJX-25" value="&lt;span style=&quot;font-size: 8px;&quot;&gt;Выгрузка архива с сервера&lt;/span&gt;" style="html=1;verticalAlign=bottom;endArrow=block;curved=0;rounded=0;jumpSize=6;movable=1;resizable=1;rotatable=1;deletable=1;editable=1;locked=0;connectable=1;shadow=0;strokeWidth=1;targetPerimeterSpacing=0;spacingTop=0;spacing=-5;sourcePerimeterSpacing=0;endSize=6;startSize=6;entryX=0.033;entryY=0.979;entryDx=0;entryDy=0;entryPerimeter=0;exitX=0.287;exitY=-0.01;exitDx=0;exitDy=0;exitPerimeter=0;" parent="1" source="DCnHzgPeeYYXoKH0LnII-15" target="jtM0x4LrWnEkOrYZ_eJX-23" edge="1">
          <mxGeometry x="0.0002" width="80" relative="1" as="geometry">
            <mxPoint x="324" y="400" as="sourcePoint" />
            <mxPoint x="480" y="400.27" as="targetPoint" />
            <mxPoint as="offset" />
          </mxGeometry>
        </mxCell>
        <mxCell id="jtM0x4LrWnEkOrYZ_eJX-26" value="&lt;span style=&quot;font-size: 8px;&quot;&gt;Запрос на выгрузку с MinIO&lt;/span&gt;" style="html=1;verticalAlign=bottom;endArrow=block;curved=0;rounded=0;jumpSize=6;movable=1;resizable=1;rotatable=1;deletable=1;editable=1;locked=0;connectable=1;shadow=0;strokeWidth=1;targetPerimeterSpacing=0;spacingTop=0;spacing=-5;sourcePerimeterSpacing=0;endSize=6;startSize=6;exitX=0.141;exitY=0.008;exitDx=0;exitDy=0;exitPerimeter=0;" parent="1" source="jtM0x4LrWnEkOrYZ_eJX-23" edge="1">
          <mxGeometry x="-0.0003" width="80" relative="1" as="geometry">
            <mxPoint x="520" y="416" as="sourcePoint" />
            <mxPoint x="1082" y="416" as="targetPoint" />
            <mxPoint as="offset" />
          </mxGeometry>
        </mxCell>
        <mxCell id="jtM0x4LrWnEkOrYZ_eJX-36" value="&lt;span style=&quot;font-size: 8px;&quot;&gt;Результат выгрузки&lt;/span&gt;" style="html=1;verticalAlign=bottom;endArrow=open;dashed=1;endSize=8;rounded=0;spacing=-5;fontSize=10;exitX=0.966;exitY=1.001;exitDx=0;exitDy=0;exitPerimeter=0;entryX=0.426;entryY=-0.014;entryDx=0;entryDy=0;entryPerimeter=0;" parent="1" source="NHm21bwI3GpqRMTArBsJ-2" target="DCnHzgPeeYYXoKH0LnII-15" edge="1">
          <mxGeometry x="0.0005" relative="1" as="geometry">
            <mxPoint x="677.9500000000004" y="544.9033999999998" as="sourcePoint" />
            <mxPoint x="528" y="528" as="targetPoint" />
            <mxPoint as="offset" />
          </mxGeometry>
        </mxCell>
        <mxCell id="jtM0x4LrWnEkOrYZ_eJX-37" value="&lt;span style=&quot;font-size: 8px;&quot;&gt;Результат выгрузки&lt;/span&gt;" style="html=1;verticalAlign=bottom;endArrow=open;dashed=1;endSize=8;rounded=0;spacing=-5;fontSize=10;exitX=0.426;exitY=1.001;exitDx=0;exitDy=0;exitPerimeter=0;entryX=0.426;entryY=-0.003;entryDx=0;entryDy=0;entryPerimeter=0;" parent="1" source="DCnHzgPeeYYXoKH0LnII-15" target="DCnHzgPeeYYXoKH0LnII-8" edge="1">
          <mxGeometry x="0.0005" relative="1" as="geometry">
            <mxPoint x="280" y="528" as="sourcePoint" />
            <mxPoint x="120" y="528" as="targetPoint" />
            <mxPoint as="offset" />
          </mxGeometry>
        </mxCell>
        <mxCell id="jtM0x4LrWnEkOrYZ_eJX-39" value="&lt;span style=&quot;font-size: 8px;&quot;&gt;Визуализация 2D среза&lt;/span&gt;" style="html=1;verticalAlign=bottom;endArrow=block;curved=0;rounded=0;exitX=0.478;exitY=0.001;exitDx=0;exitDy=0;exitPerimeter=0;jumpSize=6;movable=1;resizable=1;rotatable=1;deletable=1;editable=1;locked=0;connectable=1;shadow=0;strokeWidth=1;targetPerimeterSpacing=0;spacingTop=0;spacing=-5;sourcePerimeterSpacing=0;endSize=6;startSize=6;entryX=0.478;entryY=1.011;entryDx=0;entryDy=0;entryPerimeter=0;" parent="1" edge="1">
          <mxGeometry x="0.0002" width="80" relative="1" as="geometry">
            <mxPoint x="117.46500000000015" y="560.0049999999999" as="sourcePoint" />
            <mxPoint x="282.115" y="560.0049999999999" as="targetPoint" />
            <mxPoint as="offset" />
          </mxGeometry>
        </mxCell>
        <mxCell id="jtM0x4LrWnEkOrYZ_eJX-40" value="&lt;span style=&quot;font-size: 8px;&quot;&gt;Визуализация 2D среза&lt;/span&gt;" style="html=1;verticalAlign=bottom;endArrow=block;curved=0;rounded=0;exitX=0.495;exitY=-0.011;exitDx=0;exitDy=0;exitPerimeter=0;jumpSize=6;movable=1;resizable=1;rotatable=1;deletable=1;editable=1;locked=0;connectable=1;shadow=0;strokeWidth=1;targetPerimeterSpacing=0;spacingTop=0;spacing=-5;sourcePerimeterSpacing=0;endSize=6;startSize=6;entryX=0.011;entryY=0.995;entryDx=0;entryDy=0;entryPerimeter=0;" parent="1" target="jtM0x4LrWnEkOrYZ_eJX-41" edge="1">
          <mxGeometry x="0.0002" width="80" relative="1" as="geometry">
            <mxPoint x="317.885" y="575.6875000000002" as="sourcePoint" />
            <mxPoint x="480" y="576.05" as="targetPoint" />
            <mxPoint as="offset" />
          </mxGeometry>
        </mxCell>
        <mxCell id="jtM0x4LrWnEkOrYZ_eJX-41" value="" style="rounded=0;whiteSpace=wrap;html=1;rotation=90;labelBackgroundColor=none;glass=0;fillColor=#f8cecc;strokeColor=#b85450;" parent="1" vertex="1">
          <mxGeometry x="444.15" y="613.02" width="112.63" height="35" as="geometry" />
        </mxCell>
        <mxCell id="jtM0x4LrWnEkOrYZ_eJX-43" value="&lt;span style=&quot;font-size: 8px;&quot;&gt;Запрос на визуализацию к MinIO&lt;/span&gt;" style="html=1;verticalAlign=bottom;endArrow=block;curved=0;rounded=0;jumpSize=6;movable=1;resizable=1;rotatable=1;deletable=1;editable=1;locked=0;connectable=1;shadow=0;strokeWidth=1;targetPerimeterSpacing=0;spacingTop=0;spacing=-5;sourcePerimeterSpacing=0;endSize=6;startSize=6;entryX=0.066;entryY=1.001;entryDx=0;entryDy=0;entryPerimeter=0;exitX=0.16;exitY=-0.023;exitDx=0;exitDy=0;exitPerimeter=0;" parent="1" source="jtM0x4LrWnEkOrYZ_eJX-41" target="jtM0x4LrWnEkOrYZ_eJX-44" edge="1">
          <mxGeometry x="0.0002" width="80" relative="1" as="geometry">
            <mxPoint x="552" y="591" as="sourcePoint" />
            <mxPoint x="1072" y="591" as="targetPoint" />
            <mxPoint as="offset" />
          </mxGeometry>
        </mxCell>
        <mxCell id="jtM0x4LrWnEkOrYZ_eJX-44" value="" style="rounded=0;whiteSpace=wrap;html=1;rotation=90;labelBackgroundColor=none;glass=0;fillColor=#f8cecc;strokeColor=#b85450;" parent="1" vertex="1">
          <mxGeometry x="1073.64" y="597.64" width="52.73" height="35" as="geometry" />
        </mxCell>
        <mxCell id="jtM0x4LrWnEkOrYZ_eJX-50" value="&lt;span style=&quot;font-size: 8px;&quot;&gt;Результат визуализации&lt;/span&gt;" style="html=1;verticalAlign=bottom;endArrow=open;dashed=1;endSize=8;rounded=0;spacing=-5;fontSize=10;exitX=0.599;exitY=0.976;exitDx=0;exitDy=0;exitPerimeter=0;entryX=0.599;entryY=-0.009;entryDx=0;entryDy=0;entryPerimeter=0;" parent="1" source="DCnHzgPeeYYXoKH0LnII-15" target="DCnHzgPeeYYXoKH0LnII-8" edge="1">
          <mxGeometry x="0.002" relative="1" as="geometry">
            <mxPoint x="282.5350000000001" y="703.5775000000001" as="sourcePoint" />
            <mxPoint x="136" y="688" as="targetPoint" />
            <mxPoint as="offset" />
          </mxGeometry>
        </mxCell>
        <mxCell id="jtM0x4LrWnEkOrYZ_eJX-51" value="&lt;span style=&quot;font-size: 8px;&quot;&gt;Деаномизация данных (в браузере)&lt;/span&gt;" style="html=1;verticalAlign=bottom;endArrow=block;curved=0;rounded=0;exitX=0.616;exitY=-0.001;exitDx=0;exitDy=0;exitPerimeter=0;jumpSize=6;movable=1;resizable=1;rotatable=1;deletable=1;editable=1;locked=0;connectable=1;shadow=0;strokeWidth=1;targetPerimeterSpacing=0;spacingTop=0;spacing=-5;sourcePerimeterSpacing=0;endSize=6;startSize=6;entryX=0.617;entryY=1.003;entryDx=0;entryDy=0;entryPerimeter=0;" parent="1" edge="1">
          <mxGeometry x="0.0002" width="80" relative="1" as="geometry">
            <mxPoint x="117.53500000000008" y="719.26" as="sourcePoint" />
            <mxPoint x="282.395" y="720.1825000000001" as="targetPoint" />
            <mxPoint as="offset" />
          </mxGeometry>
        </mxCell>
        <mxCell id="jtM0x4LrWnEkOrYZ_eJX-52" value="&lt;span style=&quot;font-size: 8px;&quot;&gt;Запрос персональных данных к БД&lt;/span&gt;" style="html=1;verticalAlign=bottom;endArrow=block;curved=0;rounded=0;exitX=0.634;exitY=-0.006;exitDx=0;exitDy=0;exitPerimeter=0;jumpSize=6;movable=1;resizable=1;rotatable=1;deletable=1;editable=1;locked=0;connectable=1;shadow=0;strokeWidth=1;targetPerimeterSpacing=0;spacingTop=0;spacing=-5;sourcePerimeterSpacing=0;endSize=6;startSize=6;entryX=0.063;entryY=0.989;entryDx=0;entryDy=0;entryPerimeter=0;" parent="1" target="MNIYdGSiHyuOn0AsFa-c-3" edge="1">
          <mxGeometry x="0.0002" width="80" relative="1" as="geometry">
            <mxPoint x="317.71000000000004" y="735.865" as="sourcePoint" />
            <mxPoint x="872" y="736" as="targetPoint" />
            <mxPoint as="offset" />
          </mxGeometry>
        </mxCell>
        <mxCell id="jtM0x4LrWnEkOrYZ_eJX-59" value="&lt;span style=&quot;font-size: 8px;&quot;&gt;Персональные данные о пациенте от БД&lt;/span&gt;" style="html=1;verticalAlign=bottom;endArrow=open;dashed=1;endSize=8;rounded=0;spacing=-5;fontSize=10;exitX=0.821;exitY=0.982;exitDx=0;exitDy=0;exitPerimeter=0;entryX=0.669;entryY=-0.016;entryDx=0;entryDy=0;entryPerimeter=0;" parent="1" source="MNIYdGSiHyuOn0AsFa-c-3" target="DCnHzgPeeYYXoKH0LnII-15" edge="1">
          <mxGeometry x="-0.014" relative="1" as="geometry">
            <mxPoint x="876" y="752" as="sourcePoint" />
            <mxPoint x="328" y="752" as="targetPoint" />
            <mxPoint as="offset" />
          </mxGeometry>
        </mxCell>
        <mxCell id="jtM0x4LrWnEkOrYZ_eJX-64" value="&lt;span style=&quot;font-size: 8px;&quot;&gt;Результат деаномизации&lt;/span&gt;" style="html=1;verticalAlign=bottom;endArrow=open;dashed=1;endSize=8;rounded=0;spacing=-5;fontSize=10;exitX=0.686;exitY=0.996;exitDx=0;exitDy=0;exitPerimeter=0;entryX=0.686;entryY=-0.002;entryDx=0;entryDy=0;entryPerimeter=0;" parent="1" source="DCnHzgPeeYYXoKH0LnII-15" target="DCnHzgPeeYYXoKH0LnII-8" edge="1">
          <mxGeometry x="0.0039" relative="1" as="geometry">
            <mxPoint x="282.3600000000001" y="831.8049999999998" as="sourcePoint" />
            <mxPoint x="136" y="768" as="targetPoint" />
            <mxPoint as="offset" />
          </mxGeometry>
        </mxCell>
        <mxCell id="jtM0x4LrWnEkOrYZ_eJX-82" value="&lt;span style=&quot;font-size: 8px;&quot;&gt;Изменение информации о файле&lt;/span&gt;" style="html=1;verticalAlign=bottom;endArrow=block;curved=0;rounded=0;jumpSize=6;movable=1;resizable=1;rotatable=1;deletable=1;editable=1;locked=0;connectable=1;shadow=0;strokeWidth=1;targetPerimeterSpacing=0;spacingTop=0;spacing=-5;sourcePerimeterSpacing=0;endSize=6;startSize=6;exitX=0.963;exitY=-0.008;exitDx=0;exitDy=0;exitPerimeter=0;entryX=0.174;entryY=1.006;entryDx=0;entryDy=0;entryPerimeter=0;" parent="1" target="MNIYdGSiHyuOn0AsFa-c-5" edge="1">
          <mxGeometry x="-0.0003" width="80" relative="1" as="geometry">
            <mxPoint x="317.78" y="976.1675000000002" as="sourcePoint" />
            <mxPoint x="856" y="976.48" as="targetPoint" />
            <mxPoint as="offset" />
          </mxGeometry>
        </mxCell>
        <mxCell id="jtM0x4LrWnEkOrYZ_eJX-84" value="&lt;span style=&quot;font-size: 8px;&quot;&gt;Выход из аккаунта&lt;/span&gt;" style="html=1;verticalAlign=bottom;endArrow=block;curved=0;rounded=0;jumpSize=6;movable=1;resizable=1;rotatable=1;deletable=1;editable=1;locked=0;connectable=1;shadow=0;strokeWidth=1;targetPerimeterSpacing=0;spacingTop=0;spacing=-5;sourcePerimeterSpacing=0;endSize=6;startSize=6;exitX=0.772;exitY=-0.005;exitDx=0;exitDy=0;exitPerimeter=0;entryX=0.773;entryY=0.995;entryDx=0;entryDy=0;entryPerimeter=0;" parent="1" edge="1">
          <mxGeometry x="-0.0003" width="80" relative="1" as="geometry">
            <mxPoint x="117.67500000000007" y="1023.6500000000001" as="sourcePoint" />
            <mxPoint x="282.67499999999995" y="1024.5725" as="targetPoint" />
            <mxPoint as="offset" />
          </mxGeometry>
        </mxCell>
        <mxCell id="jtM0x4LrWnEkOrYZ_eJX-92" value="&lt;span style=&quot;font-size: 8px;&quot;&gt;Результат изменения&lt;/span&gt;" style="html=1;verticalAlign=bottom;endArrow=open;dashed=1;endSize=8;rounded=0;spacing=-5;fontSize=10;exitX=0.756;exitY=1.005;exitDx=0;exitDy=0;exitPerimeter=0;entryX=0.755;entryY=-0.005;entryDx=0;entryDy=0;entryPerimeter=0;" parent="1" edge="1">
          <mxGeometry x="0.0007" relative="1" as="geometry">
            <mxPoint x="282.32500000000005" y="1008.8899999999999" as="sourcePoint" />
            <mxPoint x="117.67500000000007" y="1007.9675" as="targetPoint" />
            <mxPoint as="offset" />
          </mxGeometry>
        </mxCell>
        <mxCell id="jtM0x4LrWnEkOrYZ_eJX-93" value="&lt;span style=&quot;font-size: 8px;&quot;&gt;Изменение информации о файле&lt;/span&gt;" style="html=1;verticalAlign=bottom;endArrow=block;curved=0;rounded=0;jumpSize=6;movable=1;resizable=1;rotatable=1;deletable=1;editable=1;locked=0;connectable=1;shadow=0;strokeWidth=1;targetPerimeterSpacing=0;spacingTop=0;spacing=-5;sourcePerimeterSpacing=0;endSize=6;startSize=6;exitX=0.703;exitY=-0.017;exitDx=0;exitDy=0;exitPerimeter=0;entryX=0.704;entryY=1.014;entryDx=0;entryDy=0;entryPerimeter=0;" parent="1" edge="1">
          <mxGeometry x="-0.0003" width="80" relative="1" as="geometry">
            <mxPoint x="118.09500000000003" y="959.9975" as="sourcePoint" />
            <mxPoint x="282.01" y="960.9200000000001" as="targetPoint" />
            <mxPoint as="offset" />
          </mxGeometry>
        </mxCell>
        <mxCell id="jtM0x4LrWnEkOrYZ_eJX-97" value="&lt;span style=&quot;font-size: 8px;&quot;&gt;Результат выхода&lt;/span&gt;" style="html=1;verticalAlign=bottom;endArrow=open;dashed=1;endSize=8;rounded=0;spacing=-5;fontSize=10;exitX=0.791;exitY=0.995;exitDx=0;exitDy=0;exitPerimeter=0;entryX=0.79;entryY=-0.005;entryDx=0;entryDy=0;entryPerimeter=0;" parent="1" edge="1">
          <mxGeometry x="0.0005" relative="1" as="geometry">
            <mxPoint x="282.67499999999995" y="1041.1775" as="sourcePoint" />
            <mxPoint x="117.67500000000007" y="1040.2549999999999" as="targetPoint" />
            <mxPoint as="offset" />
          </mxGeometry>
        </mxCell>
        <mxCell id="IztY4atu-vnlkCIvI9x5-3" value="&lt;b&gt;MinIO&lt;/b&gt;" style="html=1;whiteSpace=wrap;fillColor=#dae8fc;strokeColor=#6c8ebf;" parent="1" vertex="1">
          <mxGeometry x="1040" y="40" width="120" height="80" as="geometry" />
        </mxCell>
        <mxCell id="IztY4atu-vnlkCIvI9x5-4" value="" style="endArrow=none;dashed=1;html=1;rounded=0;entryX=0.5;entryY=1;entryDx=0;entryDy=0;" parent="1" target="IztY4atu-vnlkCIvI9x5-3" edge="1">
          <mxGeometry width="50" height="50" relative="1" as="geometry">
            <mxPoint x="1100" y="1084" as="sourcePoint" />
            <mxPoint x="1099.8999999999999" y="125.8" as="targetPoint" />
          </mxGeometry>
        </mxCell>
        <mxCell id="IztY4atu-vnlkCIvI9x5-6" value="" style="rounded=0;whiteSpace=wrap;html=1;rotation=90;labelBackgroundColor=none;glass=0;fillColor=#f8cecc;strokeColor=#b85450;" parent="1" vertex="1">
          <mxGeometry x="665.17" y="278.66" width="79.24" height="35" as="geometry" />
        </mxCell>
        <mxCell id="IztY4atu-vnlkCIvI9x5-7" value="&lt;span style=&quot;font-size: 8px;&quot;&gt;Распаковка архива&lt;/span&gt;" style="html=1;verticalAlign=bottom;endArrow=block;curved=0;rounded=0;jumpSize=6;movable=1;resizable=1;rotatable=1;deletable=1;editable=1;locked=0;connectable=1;shadow=0;strokeWidth=1;targetPerimeterSpacing=0;spacingTop=0;spacing=-5;sourcePerimeterSpacing=0;endSize=6;startSize=6;exitX=0.25;exitY=0;exitDx=0;exitDy=0;entryX=0;entryY=1;entryDx=0;entryDy=0;" parent="1" source="jtM0x4LrWnEkOrYZ_eJX-4" target="IztY4atu-vnlkCIvI9x5-6" edge="1">
          <mxGeometry x="0.0002" width="80" relative="1" as="geometry">
            <mxPoint x="522" y="256" as="sourcePoint" />
            <mxPoint x="684" y="252" as="targetPoint" />
            <mxPoint as="offset" />
          </mxGeometry>
        </mxCell>
        <mxCell id="IztY4atu-vnlkCIvI9x5-11" value="&lt;span style=&quot;font-size: 8px;&quot;&gt;Индексация БД по новой записи&lt;/span&gt;" style="html=1;verticalAlign=bottom;endArrow=block;curved=0;rounded=0;jumpSize=6;movable=1;resizable=1;rotatable=1;deletable=1;editable=1;locked=0;connectable=1;shadow=0;strokeWidth=1;targetPerimeterSpacing=0;spacingTop=0;spacing=-5;sourcePerimeterSpacing=0;endSize=6;startSize=6;entryX=0;entryY=1;entryDx=0;entryDy=0;exitX=0.191;exitY=0.003;exitDx=0;exitDy=0;exitPerimeter=0;" parent="1" source="IztY4atu-vnlkCIvI9x5-6" target="jtM0x4LrWnEkOrYZ_eJX-14" edge="1">
          <mxGeometry x="0.0002" width="80" relative="1" as="geometry">
            <mxPoint x="744" y="280" as="sourcePoint" />
            <mxPoint x="692.24" y="288.3" as="targetPoint" />
            <mxPoint as="offset" />
          </mxGeometry>
        </mxCell>
        <mxCell id="IztY4atu-vnlkCIvI9x5-14" value="&lt;span style=&quot;font-size: 8px;&quot;&gt;Загрузка распакованного файла в MinIO&lt;/span&gt;" style="html=1;verticalAlign=bottom;endArrow=block;curved=0;rounded=0;jumpSize=6;movable=1;resizable=1;rotatable=1;deletable=1;editable=1;locked=0;connectable=1;shadow=0;strokeWidth=1;targetPerimeterSpacing=0;spacingTop=0;spacing=-5;sourcePerimeterSpacing=0;endSize=6;startSize=6;exitX=0.397;exitY=-0.008;exitDx=0;exitDy=0;exitPerimeter=0;entryX=0.369;entryY=1.006;entryDx=0;entryDy=0;entryPerimeter=0;" parent="1" source="IztY4atu-vnlkCIvI9x5-6" target="jtM0x4LrWnEkOrYZ_eJX-10" edge="1">
          <mxGeometry x="0.0002" width="80" relative="1" as="geometry">
            <mxPoint x="749.5499999999997" y="300.50614000000013" as="sourcePoint" />
            <mxPoint x="918.3200000000002" y="299.99780000000004" as="targetPoint" />
            <mxPoint as="offset" />
          </mxGeometry>
        </mxCell>
        <mxCell id="IztY4atu-vnlkCIvI9x5-17" value="&lt;span style=&quot;font-size: 8px;&quot;&gt;Состояние загрузки&lt;/span&gt;" style="html=1;verticalAlign=bottom;endArrow=open;dashed=1;endSize=8;rounded=0;spacing=-5;fontSize=10;exitX=0.635;exitY=0.99;exitDx=0;exitDy=0;exitPerimeter=0;entryX=0.218;entryY=-0.009;entryDx=0;entryDy=0;entryPerimeter=0;" parent="1" source="jtM0x4LrWnEkOrYZ_eJX-14" target="DCnHzgPeeYYXoKH0LnII-15" edge="1">
          <mxGeometry x="-0.014" relative="1" as="geometry">
            <mxPoint x="872.3199999999998" y="335.7712700000002" as="sourcePoint" />
            <mxPoint x="324" y="336" as="targetPoint" />
            <mxPoint as="offset" />
          </mxGeometry>
        </mxCell>
        <mxCell id="NHm21bwI3GpqRMTArBsJ-1" value="" style="rounded=0;whiteSpace=wrap;html=1;rotation=90;labelBackgroundColor=none;glass=0;fillColor=#f8cecc;strokeColor=#b85450;" parent="1" vertex="1">
          <mxGeometry x="1049.89" y="445.88" width="100.23" height="35" as="geometry" />
        </mxCell>
        <mxCell id="NHm21bwI3GpqRMTArBsJ-2" value="" style="rounded=0;whiteSpace=wrap;html=1;rotation=90;labelBackgroundColor=none;glass=0;fillColor=#f8cecc;strokeColor=#b85450;" parent="1" vertex="1">
          <mxGeometry x="662.45" y="470.7" width="84.65" height="35" as="geometry" />
        </mxCell>
        <mxCell id="NHm21bwI3GpqRMTArBsJ-8" value="&lt;span style=&quot;font-size: 8px;&quot;&gt;Данные в нужном формате&lt;/span&gt;" style="html=1;verticalAlign=bottom;endArrow=open;dashed=1;endSize=8;rounded=0;spacing=-5;fontSize=10;exitX=0.771;exitY=0.995;exitDx=0;exitDy=0;exitPerimeter=0;entryX=0.409;entryY=-0.017;entryDx=0;entryDy=0;entryPerimeter=0;" parent="1" source="NHm21bwI3GpqRMTArBsJ-2" target="DCnHzgPeeYYXoKH0LnII-15" edge="1">
          <mxGeometry x="0.0005" relative="1" as="geometry">
            <mxPoint x="685.4249999999998" y="511.9975" as="sourcePoint" />
            <mxPoint x="332" y="512" as="targetPoint" />
            <mxPoint as="offset" />
          </mxGeometry>
        </mxCell>
        <mxCell id="NHm21bwI3GpqRMTArBsJ-10" value="&lt;span style=&quot;font-size: 8px;&quot;&gt;Данные в нужном формате&lt;/span&gt;" style="html=1;verticalAlign=bottom;endArrow=open;dashed=1;endSize=8;rounded=0;spacing=-5;fontSize=10;exitX=0.409;exitY=1.006;exitDx=0;exitDy=0;exitPerimeter=0;entryX=0.409;entryY=-0.009;entryDx=0;entryDy=0;entryPerimeter=0;" parent="1" source="DCnHzgPeeYYXoKH0LnII-15" target="DCnHzgPeeYYXoKH0LnII-8" edge="1">
          <mxGeometry x="0.0005" relative="1" as="geometry">
            <mxPoint x="281.9050000000001" y="464.3127999999999" as="sourcePoint" />
            <mxPoint x="120" y="504" as="targetPoint" />
            <mxPoint as="offset" />
          </mxGeometry>
        </mxCell>
        <mxCell id="NHm21bwI3GpqRMTArBsJ-13" value="&lt;span style=&quot;font-size: 8px;&quot;&gt;Подготовка данных к визуализации&lt;/span&gt;" style="html=1;verticalAlign=bottom;endArrow=block;curved=0;rounded=0;jumpSize=6;movable=1;resizable=1;rotatable=1;deletable=1;editable=1;locked=0;connectable=1;shadow=0;strokeWidth=1;targetPerimeterSpacing=0;spacingTop=0;spacing=-5;sourcePerimeterSpacing=0;endSize=6;startSize=6;entryX=0;entryY=0;entryDx=0;entryDy=0;exitX=0.665;exitY=1.002;exitDx=0;exitDy=0;exitPerimeter=0;" parent="1" source="jtM0x4LrWnEkOrYZ_eJX-44" target="NHm21bwI3GpqRMTArBsJ-15" edge="1">
          <mxGeometry x="0.0002" width="80" relative="1" as="geometry">
            <mxPoint x="1076" y="624" as="sourcePoint" />
            <mxPoint x="744" y="624" as="targetPoint" />
            <mxPoint as="offset" />
          </mxGeometry>
        </mxCell>
        <mxCell id="NHm21bwI3GpqRMTArBsJ-15" value="" style="rounded=0;whiteSpace=wrap;html=1;rotation=90;labelBackgroundColor=none;glass=0;fillColor=#f8cecc;strokeColor=#b85450;" parent="1" vertex="1">
          <mxGeometry x="671.37" y="640" width="66.85" height="35" as="geometry" />
        </mxCell>
        <mxCell id="NHm21bwI3GpqRMTArBsJ-17" value="&lt;span style=&quot;font-size: 8px;&quot;&gt;Данные для визуализации&lt;/span&gt;" style="html=1;verticalAlign=bottom;endArrow=open;dashed=1;endSize=8;rounded=0;spacing=-5;fontSize=10;exitX=0.477;exitY=1.011;exitDx=0;exitDy=0;exitPerimeter=0;entryX=0.565;entryY=-0.001;entryDx=0;entryDy=0;entryPerimeter=0;" parent="1" source="NHm21bwI3GpqRMTArBsJ-15" target="DCnHzgPeeYYXoKH0LnII-15" edge="1">
          <mxGeometry x="0.0005" relative="1" as="geometry">
            <mxPoint x="680" y="658" as="sourcePoint" />
            <mxPoint x="320" y="656" as="targetPoint" />
            <mxPoint as="offset" />
          </mxGeometry>
        </mxCell>
        <mxCell id="NHm21bwI3GpqRMTArBsJ-20" value="&lt;span style=&quot;font-size: 8px;&quot;&gt;Данные для визуализации&lt;/span&gt;" style="html=1;verticalAlign=bottom;endArrow=open;dashed=1;endSize=8;rounded=0;spacing=-5;fontSize=10;exitX=0.565;exitY=1.009;exitDx=0;exitDy=0;exitPerimeter=0;entryX=0.565;entryY=-0.02;entryDx=0;entryDy=0;entryPerimeter=0;" parent="1" source="DCnHzgPeeYYXoKH0LnII-15" target="DCnHzgPeeYYXoKH0LnII-8" edge="1">
          <mxGeometry x="0.0005" relative="1" as="geometry">
            <mxPoint x="268" y="656" as="sourcePoint" />
            <mxPoint x="144" y="656" as="targetPoint" />
            <mxPoint as="offset" />
          </mxGeometry>
        </mxCell>
        <mxCell id="NHm21bwI3GpqRMTArBsJ-21" value="&lt;span style=&quot;font-size: 8px;&quot;&gt;Результат визуализации&lt;/span&gt;" style="html=1;verticalAlign=bottom;endArrow=open;dashed=1;endSize=8;rounded=0;spacing=-5;fontSize=10;exitX=0.952;exitY=0.991;exitDx=0;exitDy=0;exitPerimeter=0;entryX=0.6;entryY=-0.024;entryDx=0;entryDy=0;entryPerimeter=0;" parent="1" source="NHm21bwI3GpqRMTArBsJ-15" target="DCnHzgPeeYYXoKH0LnII-15" edge="1">
          <mxGeometry x="0.0005" relative="1" as="geometry">
            <mxPoint x="685" y="688" as="sourcePoint" />
            <mxPoint x="336" y="687" as="targetPoint" />
            <mxPoint as="offset" />
          </mxGeometry>
        </mxCell>
        <mxCell id="Mf3juLHflMfr9bYgxYGq-1" value="" style="rounded=0;whiteSpace=wrap;html=1;rotation=90;labelBackgroundColor=none;glass=0;fillColor=#f8cecc;strokeColor=#b85450;" parent="1" vertex="1">
          <mxGeometry x="881.59" y="432" width="36.73" height="35" as="geometry" />
        </mxCell>
        <mxCell id="Mf3juLHflMfr9bYgxYGq-2" value="&lt;span style=&quot;font-size: 8px;&quot;&gt;Запрос персональных данных пациентов&lt;/span&gt;" style="html=1;verticalAlign=bottom;endArrow=block;curved=0;rounded=0;jumpSize=6;movable=1;resizable=1;rotatable=1;deletable=1;editable=1;locked=0;connectable=1;shadow=0;strokeWidth=1;targetPerimeterSpacing=0;spacingTop=0;spacing=-5;sourcePerimeterSpacing=0;endSize=6;startSize=6;exitX=0.262;exitY=0.001;exitDx=0;exitDy=0;exitPerimeter=0;entryX=0.03;entryY=1.003;entryDx=0;entryDy=0;entryPerimeter=0;" parent="1" source="jtM0x4LrWnEkOrYZ_eJX-23" target="Mf3juLHflMfr9bYgxYGq-1" edge="1">
          <mxGeometry x="0.0002" width="80" relative="1" as="geometry">
            <mxPoint x="525.22" y="432.00112" as="sourcePoint" />
            <mxPoint x="880" y="432" as="targetPoint" />
            <mxPoint as="offset" />
          </mxGeometry>
        </mxCell>
        <mxCell id="Mf3juLHflMfr9bYgxYGq-4" value="&lt;span style=&quot;font-size: 8px;&quot;&gt;Персональные данные пациентов&lt;/span&gt;" style="html=1;verticalAlign=bottom;endArrow=open;dashed=1;endSize=8;rounded=0;spacing=-5;fontSize=10;exitX=0.886;exitY=0.994;exitDx=0;exitDy=0;exitPerimeter=0;entryX=0.215;entryY=-0.008;entryDx=0;entryDy=0;entryPerimeter=0;" parent="1" source="Mf3juLHflMfr9bYgxYGq-1" target="NHm21bwI3GpqRMTArBsJ-2" edge="1">
          <mxGeometry x="-0.014" relative="1" as="geometry">
            <mxPoint x="864" y="472" as="sourcePoint" />
            <mxPoint x="740" y="464" as="targetPoint" />
            <mxPoint as="offset" />
          </mxGeometry>
        </mxCell>
        <mxCell id="MNIYdGSiHyuOn0AsFa-c-1" value="&lt;span style=&quot;font-size: 8px;&quot;&gt;Данные MinIO&lt;/span&gt;" style="html=1;verticalAlign=bottom;endArrow=open;dashed=1;endSize=8;rounded=0;spacing=-5;fontSize=10;exitX=0.344;exitY=1.003;exitDx=0;exitDy=0;exitPerimeter=0;entryX=0.024;entryY=-0.022;entryDx=0;entryDy=0;entryPerimeter=0;" parent="1" source="NHm21bwI3GpqRMTArBsJ-1" target="NHm21bwI3GpqRMTArBsJ-2" edge="1">
          <mxGeometry x="-0.014" relative="1" as="geometry">
            <mxPoint x="1073.64" y="445.88" as="sourcePoint" />
            <mxPoint x="736" y="448" as="targetPoint" />
            <mxPoint as="offset" />
          </mxGeometry>
        </mxCell>
        <mxCell id="MNIYdGSiHyuOn0AsFa-c-3" value="" style="rounded=0;whiteSpace=wrap;html=1;rotation=90;labelBackgroundColor=none;glass=0;fillColor=#f8cecc;strokeColor=#b85450;" parent="1" vertex="1">
          <mxGeometry x="888.92" y="727.08" width="22.09" height="35" as="geometry" />
        </mxCell>
        <mxCell id="MNIYdGSiHyuOn0AsFa-c-5" value="" style="rounded=0;whiteSpace=wrap;html=1;rotation=90;labelBackgroundColor=none;glass=0;fillColor=#f8cecc;strokeColor=#b85450;" parent="1" vertex="1">
          <mxGeometry x="888.92" y="965.8000000000001" width="22.09" height="35" as="geometry" />
        </mxCell>
        <mxCell id="MNIYdGSiHyuOn0AsFa-c-6" value="&lt;span style=&quot;font-size: 8px;&quot;&gt;Результат изменения&lt;/span&gt;" style="html=1;verticalAlign=bottom;endArrow=open;dashed=1;endSize=8;rounded=0;spacing=-5;fontSize=10;exitX=0.9;exitY=0.994;exitDx=0;exitDy=0;exitPerimeter=0;entryX=0.738;entryY=-0.024;entryDx=0;entryDy=0;entryPerimeter=0;" parent="1" source="MNIYdGSiHyuOn0AsFa-c-5" edge="1">
          <mxGeometry x="-0.014" relative="1" as="geometry">
            <mxPoint x="873" y="992.48" as="sourcePoint" />
            <mxPoint x="318.3399999999999" y="992.2850000000001" as="targetPoint" />
            <mxPoint as="offset" />
          </mxGeometry>
        </mxCell>
        <mxCell id="PTesMFYvrvuocWl_URb2-1" value="&lt;span style=&quot;font-size: 8px;&quot;&gt;Загрузка распарсенных png изображений в MinIO&lt;/span&gt;" style="html=1;verticalAlign=bottom;endArrow=block;curved=0;rounded=0;jumpSize=6;movable=1;resizable=1;rotatable=1;deletable=1;editable=1;locked=0;connectable=1;shadow=0;strokeWidth=1;targetPerimeterSpacing=0;spacingTop=0;spacing=-5;sourcePerimeterSpacing=0;endSize=6;startSize=6;exitX=0.6;exitY=-0.008;exitDx=0;exitDy=0;exitPerimeter=0;entryX=0.5;entryY=1;entryDx=0;entryDy=0;" parent="1" source="IztY4atu-vnlkCIvI9x5-6" target="jtM0x4LrWnEkOrYZ_eJX-10" edge="1">
          <mxGeometry x="0.0002" width="80" relative="1" as="geometry">
            <mxPoint x="727" y="304.57" as="sourcePoint" />
            <mxPoint x="1072" y="308" as="targetPoint" />
            <mxPoint as="offset" />
          </mxGeometry>
        </mxCell>
        <mxCell id="PTesMFYvrvuocWl_URb2-2" value="&lt;span style=&quot;font-size: 8px;&quot;&gt;Запрос состояния загрузки&lt;/span&gt;" style="html=1;verticalAlign=bottom;endArrow=block;curved=0;rounded=0;jumpSize=6;movable=1;resizable=1;rotatable=1;deletable=1;editable=1;locked=0;connectable=1;shadow=0;strokeWidth=1;targetPerimeterSpacing=0;spacingTop=0;spacing=-5;sourcePerimeterSpacing=0;endSize=6;startSize=6;exitX=0.201;exitY=0.002;exitDx=0;exitDy=0;exitPerimeter=0;entryX=0.201;entryY=1.008;entryDx=0;entryDy=0;entryPerimeter=0;" parent="1" source="DCnHzgPeeYYXoKH0LnII-8" target="DCnHzgPeeYYXoKH0LnII-15" edge="1">
          <mxGeometry x="0.0002" width="80" relative="1" as="geometry">
            <mxPoint x="118.89999999999998" y="320.0025" as="sourcePoint" />
            <mxPoint x="280" y="320" as="targetPoint" />
            <mxPoint as="offset" />
          </mxGeometry>
        </mxCell>
        <mxCell id="PTesMFYvrvuocWl_URb2-3" value="&lt;span style=&quot;font-size: 8px;&quot;&gt;Запрос состояния загрузки&lt;/span&gt;" style="html=1;verticalAlign=bottom;endArrow=block;curved=0;rounded=0;jumpSize=6;movable=1;resizable=1;rotatable=1;deletable=1;editable=1;locked=0;connectable=1;shadow=0;strokeWidth=1;targetPerimeterSpacing=0;spacingTop=0;spacing=-5;sourcePerimeterSpacing=0;endSize=6;startSize=6;exitX=0.201;exitY=-0.005;exitDx=0;exitDy=0;exitPerimeter=0;entryX=0.481;entryY=0.999;entryDx=0;entryDy=0;entryPerimeter=0;" parent="1" source="DCnHzgPeeYYXoKH0LnII-15" target="jtM0x4LrWnEkOrYZ_eJX-14" edge="1">
          <mxGeometry x="0.0002" width="80" relative="1" as="geometry">
            <mxPoint x="324" y="270.93" as="sourcePoint" />
            <mxPoint x="876" y="320" as="targetPoint" />
            <mxPoint as="offset" />
          </mxGeometry>
        </mxCell>
        <mxCell id="PTesMFYvrvuocWl_URb2-4" value="&lt;span style=&quot;font-size: 8px;&quot;&gt;Результат загрузки&lt;/span&gt;" style="html=1;verticalAlign=bottom;endArrow=open;dashed=1;endSize=8;rounded=0;spacing=-5;fontSize=10;exitX=0.957;exitY=0.99;exitDx=0;exitDy=0;exitPerimeter=0;entryX=0.252;entryY=-0.02;entryDx=0;entryDy=0;entryPerimeter=0;" parent="1" source="jtM0x4LrWnEkOrYZ_eJX-14" target="DCnHzgPeeYYXoKH0LnII-15" edge="1">
          <mxGeometry x="-0.014" relative="1" as="geometry">
            <mxPoint x="877" y="368" as="sourcePoint" />
            <mxPoint x="332" y="368" as="targetPoint" />
            <mxPoint as="offset" />
          </mxGeometry>
        </mxCell>
        <mxCell id="PTesMFYvrvuocWl_URb2-7" value="&lt;span style=&quot;font-size: 8px;&quot;&gt;Деаномизация данных (в JSON файл)&lt;/span&gt;" style="html=1;verticalAlign=bottom;endArrow=block;curved=0;rounded=0;jumpSize=6;movable=1;resizable=1;rotatable=1;deletable=1;editable=1;locked=0;connectable=1;shadow=0;strokeWidth=1;targetPerimeterSpacing=0;spacingTop=0;spacing=-5;sourcePerimeterSpacing=0;endSize=6;startSize=6;exitX=0.703;exitY=-0.004;exitDx=0;exitDy=0;exitPerimeter=0;entryX=0.703;entryY=1.004;entryDx=0;entryDy=0;entryPerimeter=0;" parent="1" source="DCnHzgPeeYYXoKH0LnII-8" target="DCnHzgPeeYYXoKH0LnII-15" edge="1">
          <mxGeometry x="0.0003" width="80" relative="1" as="geometry">
            <mxPoint x="128" y="784" as="sourcePoint" />
            <mxPoint x="272" y="784" as="targetPoint" />
            <mxPoint as="offset" />
          </mxGeometry>
        </mxCell>
        <mxCell id="PTesMFYvrvuocWl_URb2-8" value="" style="rounded=0;whiteSpace=wrap;html=1;rotation=90;labelBackgroundColor=none;glass=0;fillColor=#f8cecc;strokeColor=#b85450;" parent="1" vertex="1">
          <mxGeometry x="458.92" y="818.92" width="82.16" height="35" as="geometry" />
        </mxCell>
        <mxCell id="PTesMFYvrvuocWl_URb2-9" value="&lt;span style=&quot;font-size: 8px;&quot;&gt;Деаномизация данных (в JSON файл)&lt;/span&gt;" style="html=1;verticalAlign=bottom;endArrow=block;curved=0;rounded=0;jumpSize=6;movable=1;resizable=1;rotatable=1;deletable=1;editable=1;locked=0;connectable=1;shadow=0;strokeWidth=1;targetPerimeterSpacing=0;spacingTop=0;spacing=-5;sourcePerimeterSpacing=0;endSize=6;startSize=6;exitX=0.721;exitY=0.001;exitDx=0;exitDy=0;exitPerimeter=0;entryX=0.053;entryY=1.012;entryDx=0;entryDy=0;entryPerimeter=0;" parent="1" source="DCnHzgPeeYYXoKH0LnII-15" target="PTesMFYvrvuocWl_URb2-8" edge="1">
          <mxGeometry x="0.0003" width="80" relative="1" as="geometry">
            <mxPoint x="324" y="800" as="sourcePoint" />
            <mxPoint x="476" y="800" as="targetPoint" />
            <mxPoint as="offset" />
          </mxGeometry>
        </mxCell>
        <mxCell id="PTesMFYvrvuocWl_URb2-11" value="" style="rounded=0;whiteSpace=wrap;html=1;rotation=90;labelBackgroundColor=none;glass=0;fillColor=#f8cecc;strokeColor=#b85450;" parent="1" vertex="1">
          <mxGeometry x="888.97" y="808" width="22.09" height="34.08" as="geometry" />
        </mxCell>
        <mxCell id="PTesMFYvrvuocWl_URb2-12" value="" style="rounded=0;whiteSpace=wrap;html=1;rotation=90;labelBackgroundColor=none;glass=0;fillColor=#f8cecc;strokeColor=#b85450;" parent="1" vertex="1">
          <mxGeometry x="682.48" y="828.89" width="44.63" height="35" as="geometry" />
        </mxCell>
        <mxCell id="PTesMFYvrvuocWl_URb2-10" value="&lt;span style=&quot;font-size: 8px;&quot;&gt;Запрос персональных данных к БД&lt;/span&gt;" style="html=1;verticalAlign=bottom;endArrow=block;curved=0;rounded=0;jumpSize=6;movable=1;resizable=1;rotatable=1;deletable=1;editable=1;locked=0;connectable=1;shadow=0;strokeWidth=1;targetPerimeterSpacing=0;spacingTop=0;spacing=-5;sourcePerimeterSpacing=0;endSize=6;startSize=6;exitX=0.25;exitY=0;exitDx=0;exitDy=0;entryX=0.093;entryY=0.994;entryDx=0;entryDy=0;entryPerimeter=0;" parent="1" source="PTesMFYvrvuocWl_URb2-8" target="PTesMFYvrvuocWl_URb2-11" edge="1">
          <mxGeometry x="0.0002" width="80" relative="1" as="geometry">
            <mxPoint x="536" y="816" as="sourcePoint" />
            <mxPoint x="872" y="816" as="targetPoint" />
            <mxPoint as="offset" />
          </mxGeometry>
        </mxCell>
        <mxCell id="PTesMFYvrvuocWl_URb2-13" value="&lt;span style=&quot;font-size: 8px;&quot;&gt;Персональные данные от БД&lt;/span&gt;" style="html=1;verticalAlign=bottom;endArrow=open;dashed=1;endSize=8;rounded=0;spacing=-5;fontSize=10;exitX=0.829;exitY=1.021;exitDx=0;exitDy=0;exitPerimeter=0;entryX=0.182;entryY=-0.005;entryDx=0;entryDy=0;entryPerimeter=0;" parent="1" source="PTesMFYvrvuocWl_URb2-11" target="PTesMFYvrvuocWl_URb2-12" edge="1">
          <mxGeometry x="-0.014" relative="1" as="geometry">
            <mxPoint x="821" y="842.08" as="sourcePoint" />
            <mxPoint x="728" y="832" as="targetPoint" />
            <mxPoint as="offset" />
          </mxGeometry>
        </mxCell>
        <mxCell id="PTesMFYvrvuocWl_URb2-14" value="&lt;span style=&quot;font-size: 8px;&quot;&gt;Подготовленный JSON файл&lt;/span&gt;" style="html=1;verticalAlign=bottom;endArrow=open;dashed=1;endSize=8;rounded=0;spacing=-5;fontSize=10;exitX=0.536;exitY=1.002;exitDx=0;exitDy=0;exitPerimeter=0;entryX=0.773;entryY=0.001;entryDx=0;entryDy=0;entryPerimeter=0;" parent="1" source="PTesMFYvrvuocWl_URb2-12" target="DCnHzgPeeYYXoKH0LnII-8" edge="1">
          <mxGeometry x="-0.014" relative="1" as="geometry">
            <mxPoint x="677" y="846.15" as="sourcePoint" />
            <mxPoint x="132" y="848" as="targetPoint" />
            <mxPoint as="offset" />
          </mxGeometry>
        </mxCell>
        <mxCell id="PTesMFYvrvuocWl_URb2-16" value="&lt;span style=&quot;font-size: 8px;&quot;&gt;Результат деаномизации&lt;/span&gt;" style="html=1;verticalAlign=bottom;endArrow=open;dashed=1;endSize=8;rounded=0;spacing=-5;fontSize=10;exitX=0.891;exitY=1;exitDx=0;exitDy=0;exitPerimeter=0;entryX=0.79;entryY=-0.01;entryDx=0;entryDy=0;entryPerimeter=0;" parent="1" source="PTesMFYvrvuocWl_URb2-12" target="DCnHzgPeeYYXoKH0LnII-8" edge="1">
          <mxGeometry x="0.0039" relative="1" as="geometry">
            <mxPoint x="598.46" y="872" as="sourcePoint" />
            <mxPoint x="244" y="864" as="targetPoint" />
            <mxPoint as="offset" />
          </mxGeometry>
        </mxCell>
        <mxCell id="I8m0TN4aGnotHjiVa-p9-1" value="&lt;font style=&quot;font-size: 6px;&quot;&gt;Отображение файлов в проводнике по фильтру&lt;/font&gt;" style="html=1;verticalAlign=bottom;endArrow=block;curved=0;rounded=0;jumpSize=6;movable=1;resizable=1;rotatable=1;deletable=1;editable=1;locked=0;connectable=1;shadow=0;strokeWidth=1;targetPerimeterSpacing=0;spacingTop=0;spacing=-5;sourcePerimeterSpacing=0;endSize=6;startSize=6;entryX=0.807;entryY=1.007;entryDx=0;entryDy=0;entryPerimeter=0;exitX=0.807;exitY=0.001;exitDx=0;exitDy=0;exitPerimeter=0;" edge="1" parent="1" source="DCnHzgPeeYYXoKH0LnII-8" target="DCnHzgPeeYYXoKH0LnII-15">
          <mxGeometry x="-0.0002" width="80" relative="1" as="geometry">
            <mxPoint x="128" y="880" as="sourcePoint" />
            <mxPoint x="276.85499999999996" y="912.9225000000001" as="targetPoint" />
            <mxPoint as="offset" />
          </mxGeometry>
        </mxCell>
        <mxCell id="I8m0TN4aGnotHjiVa-p9-2" value="" style="rounded=0;whiteSpace=wrap;html=1;rotation=90;labelBackgroundColor=none;glass=0;fillColor=#f8cecc;strokeColor=#b85450;" vertex="1" parent="1">
          <mxGeometry x="879.25" y="896" width="41.54" height="35" as="geometry" />
        </mxCell>
        <mxCell id="I8m0TN4aGnotHjiVa-p9-3" value="&lt;font style=&quot;font-size: 8px;&quot;&gt;Отображение файлов в проводнике по фильтру&lt;/font&gt;" style="html=1;verticalAlign=bottom;endArrow=block;curved=0;rounded=0;jumpSize=6;movable=1;resizable=1;rotatable=1;deletable=1;editable=1;locked=0;connectable=1;shadow=0;strokeWidth=1;targetPerimeterSpacing=0;spacingTop=0;spacing=-5;sourcePerimeterSpacing=0;endSize=6;startSize=6;exitX=0.825;exitY=-0.005;exitDx=0;exitDy=0;exitPerimeter=0;entryX=0.1;entryY=1.001;entryDx=0;entryDy=0;entryPerimeter=0;" edge="1" parent="1" source="DCnHzgPeeYYXoKH0LnII-15" target="I8m0TN4aGnotHjiVa-p9-2">
          <mxGeometry x="-0.0002" width="80" relative="1" as="geometry">
            <mxPoint x="324" y="896" as="sourcePoint" />
            <mxPoint x="680" y="896" as="targetPoint" />
            <mxPoint as="offset" />
          </mxGeometry>
        </mxCell>
        <mxCell id="I8m0TN4aGnotHjiVa-p9-4" value="&lt;span style=&quot;font-size: 8px;&quot;&gt;Данные о файлах&lt;/span&gt;" style="html=1;verticalAlign=bottom;endArrow=open;dashed=1;endSize=8;rounded=0;spacing=-5;fontSize=10;entryX=0.86;entryY=-0.005;entryDx=0;entryDy=0;entryPerimeter=0;exitX=0.878;exitY=1.005;exitDx=0;exitDy=0;exitPerimeter=0;" edge="1" parent="1" source="I8m0TN4aGnotHjiVa-p9-2" target="DCnHzgPeeYYXoKH0LnII-15">
          <mxGeometry x="0.0039" relative="1" as="geometry">
            <mxPoint x="687" y="928" as="sourcePoint" />
            <mxPoint x="348" y="928" as="targetPoint" />
            <mxPoint as="offset" />
          </mxGeometry>
        </mxCell>
        <mxCell id="I8m0TN4aGnotHjiVa-p9-5" value="&lt;span style=&quot;font-size: 8px;&quot;&gt;Результат отображения&lt;/span&gt;" style="html=1;verticalAlign=bottom;endArrow=open;dashed=1;endSize=8;rounded=0;spacing=-5;fontSize=10;exitX=0.877;exitY=0.99;exitDx=0;exitDy=0;exitPerimeter=0;entryX=0.877;entryY=-0.071;entryDx=0;entryDy=0;entryPerimeter=0;" edge="1" parent="1" source="DCnHzgPeeYYXoKH0LnII-15" target="DCnHzgPeeYYXoKH0LnII-8">
          <mxGeometry x="0.0039" relative="1" as="geometry">
            <mxPoint x="277" y="944" as="sourcePoint" />
            <mxPoint x="132" y="944" as="targetPoint" />
            <mxPoint as="offset" />
          </mxGeometry>
        </mxCell>
      </root>
    </mxGraphModel>
  </diagram>
</mxfile>
